<?xml version="1.0" encoding="UTF-8" standalone="no"?>
<!-- Created with Inkscape (http://www.inkscape.org/) -->

<svg
   xmlns:dc="http://purl.org/dc/elements/1.1/"
   xmlns:cc="http://creativecommons.org/ns#"
   xmlns:rdf="http://www.w3.org/1999/02/22-rdf-syntax-ns#"
   xmlns:svg="http://www.w3.org/2000/svg"
   xmlns="http://www.w3.org/2000/svg"
   xmlns:sodipodi="http://sodipodi.sourceforge.net/DTD/sodipodi-0.dtd"
   xmlns:inkscape="http://www.inkscape.org/namespaces/inkscape"
   id="svg2985"
   version="1.1"
   inkscape:version="0.91 r13725"
   width="1000"
   height="189.395"
   sodipodi:docname="Premier League Alternative Horizontal 2016.svg">
  <metadata
     id="metadata2991">
    <rdf:RDF>
      <cc:Work
         rdf:about="">
        <dc:format>image/svg+xml</dc:format>
        <dc:type
           rdf:resource="http://purl.org/dc/dcmitype/StillImage" />
        <dc:title></dc:title>
      </cc:Work>
    </rdf:RDF>
  </metadata>
  <defs
     id="defs2989" />
  <sodipodi:namedview
     pagecolor="#ffffff"
     bordercolor="#666666"
     borderopacity="1"
     objecttolerance="10"
     gridtolerance="10"
     guidetolerance="10"
     inkscape:pageopacity="0"
     inkscape:pageshadow="2"
     inkscape:window-width="1366"
     inkscape:window-height="705"
     id="namedview2987"
     showgrid="false"
     inkscape:zoom="0.67699116"
     inkscape:cx="535.18061"
     inkscape:cy="206.52123"
     inkscape:window-x="-8"
     inkscape:window-y="-8"
     inkscape:window-maximized="1"
     inkscape:current-layer="svg2985" />
  <path
     id="path56"
     inkscape:connector-curvature="0"
     d="m 553.12335,86.65768 c -4.14002,3.39284 -7.64987,5.28384 -7.64987,5.28384 l 0.0479,10.75437 c 2.95943,3.22166 5.87898,5.89065 8.06465,10.7542 4.148,-7.28359 3.3503,-17.99133 -0.46265,-26.79241 m -3.36627,35.2045 c 0,0 -0.84554,-4.43559 -4.44313,-8.57545 l -8.20825,0.19466 c 0,0 -11.06398,9.27583 -17.81245,9.4938 0,0 3.71723,6.74673 5.59982,10.27179 3.70924,-0.79379 10.24233,-3.64962 12.87472,-6.63782 0,0 1.73898,5.47052 1.41191,11.92933 3.69332,-2.08549 8.78258,-7.75051 10.57738,-16.67615 m -10.57738,-19.42323 -0.016,-10.7154 c 0,0 -4.90581,-1.53298 -10.13865,-5.49383 -10.51359,1.54863 -23.24475,11.86705 -23.24475,11.86705 0,0 4.29958,7.96066 9.00595,16.55176 8.27206,1.12834 20.46079,-9.06584 24.3934,-12.20958 m 28.03884,44.62038 -6.76444,-7.30706 c -1.93039,19.7501 -11.84568,36.51967 -30.05698,48.21554 l -2.78394,-10.65312 c -15.45925,10.89441 -41.99047,17.96025 -64.78051,5.38493 2.83179,-14.08494 5.34452,-28.35654 -0.0479,-45.44532 -12.61948,19.06537 -23.78717,26.53564 -23.78717,26.53564 -8.52729,-13.96804 -7.76153,-41.99004 -5.21689,-50.23861 l -14.19093,4.28773 c 0,-9.41588 6.94788,-29.39162 17.01477,-40.61291 l -8.86238,-1.38514 -0.008,0 c 6.0226,-12.00713 15.01258,-22.35685 26.01273,-30.13082 l 0.016,-0.01 c -3.30243,5.08926 -3.35031,17.64892 6.3257,22.42693 -4.1081,-7.02688 -4.60268,-15.71133 -0.3111,-20.20915 4.29159,-4.53674 11.51068,-2.98033 16.12134,0.53699 -1.37202,-3.92198 -5.3924,-8.85562 -11.41495,-9.19019 l -0.008,0 c 11.37506,-5.71182 24.28971,-8.92564 37.95414,-8.92564 2.55262,0 5.09726,0.1089 7.58606,0.32682 l 0,0 c 3.97251,1.55635 9.80361,7.01911 12.52375,10.41971 0,0 0.19135,-4.00758 -2.08995,-8.84781 14.79717,3.51731 21.85674,9.39249 24.81617,12.22504 0.60625,6.24102 2.5207,9.98398 5.04939,15.91365 -4.79413,-5.23713 -16.83927,-13.68801 -22.59063,-15.71133 0,0 -0.47062,5.40832 -2.44891,8.00739 -11.45484,-8.06178 -17.07857,-10.09285 -17.07857,-10.09285 -12.57161,1.75867 -20.66021,6.48997 -25.05548,10.20962 l 3.8289,3.18267 c -7.57805,2.27227 -12.49981,8.62214 -12.49981,8.62214 0.0557,0.11689 6.7724,1.05058 6.7724,1.05058 0,0 -0.68602,7.6961 9.18941,12.52072 8.46351,4.1322 20.62829,-0.99596 32.08314,3.48627 -7.53019,-8.48205 -12.73913,-12.2718 -12.73913,-12.2718 0,0 -2.99134,-0.6069 -5.09723,-0.59146 -2.63239,0.016 -6.55704,0.52146 -10.85658,-1.11274 -2.05805,-0.78592 -4.45912,-2.17109 -6.34165,-3.32276 0,0 5.2887,-5.29936 13.01831,-6.46665 0,0 6.97183,1.91438 12.49187,5.89859 3.66936,-3.48625 7.49829,-3.37731 7.49829,-3.37731 0,0 -3.79703,3.45509 -2.64833,7.64164 5.51204,4.79354 11.49472,11.65703 11.49472,11.65703 6.09436,-3.2528 19.344,-2.50563 22.06412,0.57599 -3.446,-4.36565 -8.41563,-8.00754 -12.26052,-11.1202 -0.47061,-1.6341 -4.66646,-7.33037 -5.37643,-7.8595 0,0 3.98848,1.19836 7.55415,4.31888 1.02103,-1.4241 2.93551,-2.87149 5.54396,-3.50964 2.68023,2.19448 3.15886,5.56393 3.08706,6.12424 -1.20451,1.40846 -2.40105,1.98438 -2.40105,1.98438 l 6.4613,6.82453 0.64612,-4.89469 c 14.88494,20.73824 22.99746,44.73711 12.56364,74.90687 M 449.67066,15.81233 c 8.58316,3.83639 14.0952,8.67663 15.10029,9.41586 -0.45467,-2.16329 -2.14579,-12.57523 -3.11896,-19.04183 5.00152,3.38503 16.60793,11.24458 20.42888,13.79697 1.5555,-4.6768 6.94788,-19.95232 6.94788,-19.95232 0,0 9.74778,15.39225 11.41495,17.89017 2.03413,-2.07772 13.6804,-14.72301 16.6957,-17.92129 0.50255,7.27591 1.18854,17.68006 1.36405,19.24419 0.58231,-0.77039 5.04141,-6.87127 12.51577,-12.48966 -3.23862,6.22537 -4.78616,14.81639 -5.47215,21.71875 -7.35472,-1.99991 -15.11625,-3.07375 -23.10913,-3.07375 -15.35555,0 -29.7778,3.93755 -42.24572,10.85546 -2.26545,-6.66892 -5.81519,-14.96422 -10.52156,-20.44255"
     style="overflow:visible;fill:#360c3a;fill-opacity:1" />
  <path
     style="overflow:visible;fill:#360c3a;fill-opacity:1"
     d="m 0,45.78208 0,90.70733 17.602283,0 0,-29.64041 11.143438,0 c 18.942638,0 32.761388,-11.36788 32.761388,-30.75502 0,-19.16807 -14.040969,-30.3119 -32.761388,-30.3119 L 0,45.78208 Z m 275.67533,2.6767 c -5.7936,0 -10.24993,4.45761 -10.24993,10.25119 0,5.57144 4.45633,10.03169 10.24993,10.03169 5.79358,0 10.25116,-4.46344 10.25116,-10.03169 0,-5.79675 -4.45758,-10.25119 -10.25116,-10.25119 z m -258.073047,14.03849 10.253716,0 c 8.917385,0 15.377412,4.67616 15.377412,13.59671 0,8.91734 -6.460027,13.81905 -15.377412,13.81905 l -10.253716,0 0,-27.41576 z M 135.72128,75.2018 c -19.39025,0 -31.64705,14.92984 -31.64705,31.6472 0,18.49801 13.59751,31.1991 32.09255,31.1991 10.03164,0 19.393,-4.01275 25.85325,-11.3682 l -10.02781,-10.24991 c -4.23487,4.46018 -9.36189,6.91312 -16.04755,6.91312 -7.35231,0 -13.37513,-4.4629 -14.93066,-11.14847 l 43.68272,0 c 0.44444,-2.22538 0.44421,-4.23503 0.44421,-5.79372 0,-20.28234 -14.93409,-31.19912 -29.41966,-31.19912 z m 66.86055,0 c -11.14274,0 -14.70855,9.35761 -14.70855,9.35761 l -1.78701,-7.79906 -14.48519,0 0,59.7265 16.49177,0 0,-34.98765 c 0,-6.68876 3.34227,-10.70167 9.8057,-10.70167 5.57136,0 9.13684,4.01371 9.13684,10.47699 l 0,35.21233 16.49175,0 0,-34.98765 c 0,-6.68876 3.34292,-10.70167 9.80317,-10.70167 5.57454,0 9.13938,4.01371 9.13938,10.47699 l 0.01,0 0,35.21489 16.49176,0 0,-38.11095 c 0,-13.59342 -8.69191,-23.17666 -21.39335,-23.17666 -4.45709,0 -11.58722,0.66971 -17.384,8.91735 l -0.44801,0.66637 -0.44802,-0.66637 c -4.01265,-6.02223 -9.80218,-8.91735 -16.71642,-8.91735 z m 119.22954,0 c -19.39026,0 -31.64707,14.92984 -31.64707,31.6472 0,18.49801 13.59752,31.1991 32.09254,31.1991 10.02532,0 19.38602,-4.01275 25.84945,-11.3682 l -10.02527,-10.24991 c -4.23806,4.46018 -9.36382,6.91312 -16.04627,6.91312 -7.3523,0 -13.36816,-4.4629 -14.93321,-11.14847 l 43.68527,0 c 0.44442,-2.22538 0.4442,-4.23503 0.4442,-5.79372 0,-20.28234 -14.93409,-31.19912 -29.41964,-31.19912 z M 98.281675,76.09398 c -7.136425,0 -12.482962,3.78328 -15.152766,9.35775 l -1.787013,-8.69138 -14.263076,0 0,59.7265 16.494319,0 0,-30.08849 c 0,-9.58083 5.572046,-14.48654 13.5942,-14.48654 2.009503,0 3.783051,0.2258 5.792541,0.67004 l 0,-15.82151 c -1.56187,-0.44744 -3.119496,-0.66637 -4.678205,-0.66637 z m 290.608525,0 c -7.13324,0 -12.47914,3.78328 -15.1553,9.35775 l -1.7832,-8.69138 -14.26055,0 0,59.7265 16.49432,0 0,-30.08849 c 0,-9.58083 5.56826,-14.48654 13.5904,-14.48654 2.0095,0 3.78811,0.2258 5.79761,0.67004 l 0,-15.82151 c -1.56506,-0.44744 -3.12139,-0.66637 -4.68328,-0.66637 z m -121.68033,0.66637 0,59.72267 16.48796,0 0,-59.72267 -16.48796,0 z M 135.27456,89.68708 c 6.68881,0 12.25707,4.23455 13.59039,10.47587 l -27.63137,0 c 1.33331,-6.46344 7.12992,-10.47587 14.04098,-10.47587 z m 186.08627,0 c 6.68561,0 12.26089,4.23455 13.5942,10.47587 l -27.63519,0 c 1.34285,-6.46344 7.13311,-10.47587 14.04099,-10.47587 z"
     id="path44_1_-5"
     inkscape:connector-curvature="0" />
  <path
     style="overflow:visible;fill:#360c3a;fill-opacity:1"
     d="m 606.20062,47.05043 0,88.47479 55.93668,0 0,-16.71384 -38.33312,0 0,-71.76095 -17.60356,0 z m 91.14254,27.18588 c -19.38711,0 -31.64071,14.93115 -31.64071,31.6485 0,18.49801 13.59622,31.19895 32.09128,31.19895 10.03161,0 19.39046,-4.0094 25.8507,-11.36804 l -10.02529,-10.25119 c -4.24122,4.45699 -9.36506,6.90817 -16.04752,6.90817 -7.35232,0 -13.37514,-4.45668 -14.93703,-11.14224 l 43.68528,0 c 0.44442,-2.22539 0.44549,-4.23503 0.44549,-5.79373 0,-20.28233 -14.93349,-31.20042 -29.4222,-31.20042 z m 273.23469,0 c -19.39029,0 -31.6471,14.93115 -31.6471,31.6485 0,18.49801 13.58998,31.19895 32.09131,31.19895 10.03169,0 19.38722,-4.0094 25.85068,-11.36804 l -10.02523,-10.25119 c -4.23482,4.45699 -9.36192,6.90817 -16.04755,6.90817 -7.35235,0 -13.37067,-4.45668 -14.9294,-11.14224 l 43.67509,0 C 999.99962,109.00507 1000,106.99543 1000,105.43673 1000,85.1544 985.06342,74.23631 970.57785,74.23631 Z m -208.60029,0.67004 c -15.82204,0 -29.63797,14.04202 -29.63797,30.75618 0,16.93644 13.81593,31.42123 29.63797,31.42123 8.24755,0 14.93011,-3.78775 18.49832,-9.14314 l 1.7832,7.58077 14.48646,0 0,-59.72527 -14.48646,0 -1.7832,7.7991 c -3.56821,-5.57128 -9.58094,-8.68887 -18.49832,-8.68887 z m 71.76338,0 c -16.93632,0 -30.75484,13.36895 -30.75484,30.75618 0,17.60297 13.37112,31.42123 30.31061,31.42123 6.46338,0 12.25718,-2.0031 17.15553,-7.1303 l 0,4.23519 c 0,8.9143 -5.3453,14.93334 -17.60229,14.93334 -7.79993,0 -13.81656,-3.79014 -18.27371,-8.02501 l -9.13933,12.70445 c 7.13011,6.90785 16.0437,11.14224 28.52613,11.14224 9.13322,0 16.71731,-3.11755 22.28555,-7.35242 7.35545,-5.79356 10.4733,-13.59374 10.4733,-24.73629 l 0,-57.05629 -14.48516,0 -1.78702,7.57826 c -3.56187,-5.12687 -9.80094,-8.46723 -16.70877,-8.47058 z m 41.00981,0.88977 0,31.87175 c 0,22.28559 16.04085,29.41589 29.18994,29.41589 12.92681,0 29.19626,-7.1303 29.19626,-29.41589 l 0,-31.87175 -16.49175,0 0,30.75474 c 0,9.58435 -5.35218,14.70739 -12.70451,14.70739 -8.01895,0 -12.70454,-4.45651 -12.70454,-14.70739 l 0,-30.75474 -16.4854,0 z M 696.90147,88.72545 c 6.68884,0 12.26089,4.23439 13.59421,10.47587 l -27.63516,0 c 1.33968,-6.46344 7.12992,-10.47587 14.04095,-10.47587 z m 273.22833,0 c 6.6856,0 12.25712,4.23439 13.59679,10.47587 l -27.63392,0 c 1.33649,-6.46344 7.12927,-10.47587 14.03713,-10.47587 z m -204.81053,1.11812 c 8.69194,0 15.37875,6.68269 15.37875,15.81896 0,8.69186 -6.68681,15.59955 -15.37875,15.59955 -8.91737,0 -15.59572,-6.90769 -15.59572,-15.59955 0,-9.13627 6.67835,-15.81896 15.59572,-15.81896 z m 70.42823,0 c 8.68883,0 15.59701,6.68269 15.59701,15.81896 0,8.69186 -6.90818,15.59955 -15.59701,15.59955 -8.68878,0 -15.6033,-6.90769 -15.6033,-15.59955 0,-9.13627 6.91452,-15.81896 15.6033,-15.81896 z"
     id="path4793"
     inkscape:connector-curvature="0" />
</svg>
